DataType=double
version=3
OpenSimVersion=4.5
endheader
time	AddMag	AddLong	GlutMaxMed	GlutMed	Iliopsoas	Sartorius	SemiMemb	SemiTend	BicFemLong	RecFem	TenFascLat	Gracilis	BicFemShort	VastMed	VastLat	VastInt	GasMed	GasLat	TibAnt	TibPost	ExtHalLong	FlexHalLong	PeroneusLong	Sol	ExtDigLong	GlutMaxLat	FlexDigLong	RecFem2
3	0.1790033231696754	0.08509659608724029	0.005251687304347417	0.1717322816587859	0.1584568403604736	0.06682150383273214	0.08584300033224351	0.2237099892676307	0.1034270610791926	0.07296465565437622	0.3059924189603539	0.1217286367446072	0.1772703102256589	0.08890495957763658	0.01090109479141017	0.1157226292403292	0.4626938807926325	0.3602503180121469	0.1624468030851166	0.02722991374265141	0.02576384711538374	0.4106012932057851	0.7513807748861115	0.3028590715166334	0	0.1196227707314829	0.07509364188172281	0.1810160632136173
3.001	0.176955968184917	0.08223126241822418	0.00369539009407398	0.1693331862896779	0.154878855273502	0.06554886203702098	0.08409932913476666	0.2191337980188778	0.1005772456141561	0.07120702123681497	0.3054359765923353	0.1199216998323279	0.174705906326978	0.08633403656669526	0.009130171245274396	0.1128729123623216	0.4642010044438433	0.3606399529607099	0.1634702624372527	0.02491794296938005	0.02657460223692466	0.4136854701161506	0.7534700951590888	0.3038947953127095	0	0.1168099074757221	0.07217398060524378	0.1784639538233587
3.002	0.174906134447601	0.07936244742373375	0.002186394451237157	0.16694150142949	0.15129681510502	0.06427675956301805	0.08235279220160557	0.2145731362593093	0.09772316435163871	0.06947059584430533	0.3049277687302065	0.1181254098322836	0.1721385036489433	0.08376936575713939	0.007382270119851158	0.1100106039737151	0.4657399282676723	0.3610250297131637	0.1644842722603057	0.02263150212107151	0.02737676644947353	0.4168082106245056	0.7554804160802995	0.3049680245304702	0	0.1140424535029154	0.06925105413544844	0.1759465900242068
3.003	0.1728545125796667	0.07649168165049593	0.0007243706106396607	0.1645579630068151	0.1477123924168839	0.06300577748577658	0.08060422402801373	0.2100290782911829	0.09486620625221315	0.06775550991519688	0.3044672834296955	0.1163401205286686	0.1695694539018344	0.08121186930543151	0.005657870296628534	0.1071370948822652	0.4673108206841	0.3614058637205813	0.1654884626571063	0.02037167341104924	0.02817010178108782	0.4199696270326962	0.7574116153136308	0.3060788028385952	0	0.1113203276090795	0.06632636620673781	0.1734644839246974
3.004	0.173239428792455	0.08079782637738196	0	0.168015972318788	0.1511457392578279	0.06469618187108012	0.08316994868130941	0.2074687407898244	0.09897226062806913	0.06779703278275119	0.3045017076791949	0.1165174374063978	0.1735340990052266	0.08339338370886699	0.007177467302728206	0.1108206616467944	0.4691317255896537	0.362661851090501	0.1674186291714927	0.02074373811237869	0.02993160137920704	0.4253705186628651	0.7605308856429766	0.3074557313952501	0.002300435278826485	0.1094753784376373	0.07059282889087987	0.1742507129353273
3.005	0.1760159517456446	0.09214809448310196	0	0.1772071077758894	0.1614671809184621	0.06929316272149036	0.08997004205630386	0.2068563858176379	0.1099123841374756	0.06956281707018229	0.3050221230317714	0.1186211939695428	0.1839115119293215	0.09022629270436212	0.01188126977989236	0.1209398090392165	0.4711987021404963	0.3647768687418508	0.1702569056921284	0.02370003489455317	0.0326427588687515	0.4329697761088578	0.7648144505325445	0.3090945531075714	0.006858267710989214	0.1084919370473637	0.08191736589979459	0.1782452751930202
3.006	0.1786307611420717	0.1030240542855506	0	0.1860209921419933	0.1713248573797949	0.07369632050840827	0.09648384046597568	0.2061331512506619	0.1203909989209961	0.07123501001960404	0.3055588901265557	0.1206073349204451	0.1938571331971869	0.09675475302069109	0.01639600212767711	0.1306155674289731	0.4732835783233093	0.3668302114276983	0.1730221130756811	0.02651311114512805	0.03527949352047922	0.4404616926530747	0.7689344987614966	0.310755796193309	0.01126326911133105	0.1074982401121406	0.09276677131481544	0.18206176280457
3.007	0.1810858471313696	0.113431085071095	0	0.1944614821456877	0.1807241997105284	0.07790781741104413	0.1027144967630687	0.2053011265373782	0.1304132336236967	0.0728146608342935	0.3061116824780122	0.1224772520608578	0.2033758170603199	0.1029822174372438	0.02072384987306896	0.1398528642129092	0.4753865760342212	0.3688226912704347	0.1757144300276343	0.02918542891081838	0.03784213044943559	0.4478474861386086	0.7728917112959673	0.3124395804894903	0.01551669832407021	0.1064946161428837	0.1031464074121938	0.1857023837068005
3.008	0.1833832311901868	0.1233746645764886	0	0.2025325135994811	0.1896707337695586	0.08192985477612019	0.1086652240627469	0.2043624179326043	0.1399843138526835	0.07430283992312757	0.3066801668695821	0.1242323619557103	0.2124725071299736	0.1089122023087401	0.02486703799465991	0.1486567206552711	0.4775079042450371	0.3707551388067342	0.1783340599596302	0.03171948151643299	0.04033101801167521	0.4551283860826995	0.7766868172771949	0.3141460174868705	0.01961985228190909	0.1054813965822694	0.1130617357241196	0.1891693811175608
3.009	0.1855249650288694	0.1328603660000931	0	0.2102380992883622	0.1981700771986599	0.08576467191221608	0.1143392939485859	0.2033191475384022	0.1491095593394223	0.07570063830632646	0.3072640034851168	0.1258741051527042	0.2211522336711386	0.1145482856923896	0.0288278296996773	0.1570322491467745	0.4796477588951091	0.3726284026247035	0.1808812306690176	0.03411779236593218	0.0427465274164703	0.4623056328254917	0.7803205934027292	0.3158752102922434	0.02357406512816846	0.1044589157054868	0.1225183140621971	0.1924650323234184
3.01	0.1875131294995405	0.1418938550116129	0	0.2175823268557289	0.2062279364151421	0.08941454488364291	0.1197400346776446	0.2021734523506988	0.1577943810992014	0.07700916701997104	0.307862846042358	0.1274039454022412	0.2294201108949663	0.1198941054730284	0.03260852520043223	0.1649846504607763	0.481806322788621	0.3744433489950545	0.1833561940101507	0.03638291374270281	0.04508905233393411	0.4693804766854566	0.7837938632906836	0.3176272535957393	0.02738070733535338	0.1034275105201717	0.1315217935386689	0.1955916474659234
